<mxfile host="65bd71144e">
    <diagram id="4iV8ZDqTqPZnxpKegpWr" name="Page-1">
        <mxGraphModel dx="1312" dy="773" grid="1" gridSize="10" guides="1" tooltips="1" connect="1" arrows="1" fold="1" page="1" pageScale="1" pageWidth="850" pageHeight="1100" math="0" shadow="0">
            <root>
                <mxCell id="0"/>
                <mxCell id="1" parent="0"/>
                <mxCell id="2" value="JS project" style="ellipse;whiteSpace=wrap;html=1;aspect=fixed;verticalAlign=top;fontSize=18;fillColor=#1ba1e2;fontColor=#ffffff;strokeColor=#006EAF;gradientColor=none;" vertex="1" parent="1">
                    <mxGeometry x="90" y="20" width="650" height="650" as="geometry"/>
                </mxCell>
                <mxCell id="8" value="Yarn" style="ellipse;whiteSpace=wrap;html=1;aspect=fixed;verticalAlign=top;fontSize=18;fillColor=#5696D6;strokeColor=#314354;fontColor=#ffffff;gradientColor=none;" vertex="1" parent="1">
                    <mxGeometry x="145" y="60" width="580" height="580" as="geometry"/>
                </mxCell>
                <mxCell id="3" value="Karma" style="ellipse;whiteSpace=wrap;html=1;aspect=fixed;verticalAlign=top;fontSize=18;fillColor=#647687;strokeColor=#314354;fontColor=#ffffff;gradientColor=none;" vertex="1" parent="1">
                    <mxGeometry x="200" y="140" width="480" height="480" as="geometry"/>
                </mxCell>
                <mxCell id="4" value="Jasmine" style="ellipse;whiteSpace=wrap;html=1;aspect=fixed;verticalAlign=top;fontSize=18;fillColor=#76608a;fontColor=#ffffff;strokeColor=#432D57;gradientColor=none;" vertex="1" parent="1">
                    <mxGeometry x="320" y="240" width="330" height="330" as="geometry"/>
                </mxCell>
                <mxCell id="6" value="Write tests" style="text;html=1;strokeColor=none;fillColor=none;align=center;verticalAlign=middle;whiteSpace=wrap;rounded=0;fontSize=18;" vertex="1" parent="1">
                    <mxGeometry x="400" y="300" width="155" height="30" as="geometry"/>
                </mxCell>
                <mxCell id="7" value="Run tests and report" style="text;html=1;strokeColor=none;fillColor=none;align=center;verticalAlign=middle;whiteSpace=wrap;rounded=0;fontSize=18;" vertex="1" parent="1">
                    <mxGeometry x="348" y="180" width="192" height="30" as="geometry"/>
                </mxCell>
                <mxCell id="9" value="Package manager" style="text;html=1;strokeColor=none;fillColor=none;align=center;verticalAlign=middle;whiteSpace=wrap;rounded=0;fontSize=18;" vertex="1" parent="1">
                    <mxGeometry x="329" y="90" width="192" height="30" as="geometry"/>
                </mxCell>
            </root>
        </mxGraphModel>
    </diagram>
</mxfile>